<mxfile host="app.diagrams.net" modified="2024-04-27T12:20:46.871Z" agent="Mozilla/5.0 (Windows NT 10.0; Win64; x64) AppleWebKit/537.36 (KHTML, like Gecko) Chrome/124.0.0.0 Safari/537.36" etag="OWNt1-3i9fYa0p16xpzq" version="24.2.2" type="device">
  <diagram name="Page-1" id="wheWkL0AoxxiBxUbhJFq">
    <mxGraphModel dx="2577" dy="928" grid="1" gridSize="10" guides="1" tooltips="1" connect="1" arrows="1" fold="1" page="1" pageScale="1" pageWidth="827" pageHeight="1169" math="0" shadow="0">
      <root>
        <mxCell id="0" />
        <mxCell id="1" parent="0" />
        <mxCell id="SLbRJCfgujYiKdR8xFGR-87" value="" style="group;fontSize=14;fontStyle=1" vertex="1" connectable="0" parent="1">
          <mxGeometry x="-30" y="40" width="930" height="1430" as="geometry" />
        </mxCell>
        <mxCell id="SLbRJCfgujYiKdR8xFGR-1" value="&lt;p style=&quot;margin: 4px 0px 0px; text-align: center; font-size: 14px;&quot;&gt;&lt;/p&gt;&lt;p style=&quot;font-size: 14px;&quot;&gt;&lt;/p&gt;" style="shape=rect;html=1;overflow=fill;whiteSpace=wrap;align=center;verticalAlign=top;fontStyle=1;fontSize=14;" vertex="1" parent="SLbRJCfgujYiKdR8xFGR-87">
          <mxGeometry y="30" width="341.39240506329116" height="1400" as="geometry" />
        </mxCell>
        <mxCell id="SLbRJCfgujYiKdR8xFGR-7" value="" style="group;fontStyle=1;fontSize=14;" vertex="1" connectable="0" parent="SLbRJCfgujYiKdR8xFGR-87">
          <mxGeometry x="659.2405063291139" y="30" width="270.75949367088606" height="1400" as="geometry" />
        </mxCell>
        <mxCell id="SLbRJCfgujYiKdR8xFGR-5" value="&lt;p style=&quot;margin: 4px 0px 0px; text-align: center; font-size: 14px;&quot;&gt;&lt;/p&gt;&lt;p style=&quot;font-size: 14px;&quot;&gt;&lt;/p&gt;" style="shape=rect;html=1;overflow=fill;whiteSpace=wrap;align=center;verticalAlign=top;fontStyle=1;fontSize=14;" vertex="1" parent="SLbRJCfgujYiKdR8xFGR-7">
          <mxGeometry width="270.75949367088606" height="1400.0000000000005" as="geometry" />
        </mxCell>
        <mxCell id="SLbRJCfgujYiKdR8xFGR-26" value="DATABASE" style="text;html=1;align=center;verticalAlign=middle;whiteSpace=wrap;rounded=0;fontStyle=1;fontSize=14;" vertex="1" parent="SLbRJCfgujYiKdR8xFGR-7">
          <mxGeometry x="105.94936708860759" y="13.207547169811324" width="70.63291139240506" height="39.622641509433976" as="geometry" />
        </mxCell>
        <mxCell id="SLbRJCfgujYiKdR8xFGR-55" value="Update user information in a secured database" style="rounded=1;whiteSpace=wrap;html=1;fontStyle=1;fontSize=14;" vertex="1" parent="SLbRJCfgujYiKdR8xFGR-7">
          <mxGeometry x="23.544303797468356" y="630" width="188.35443037974684" height="57.92" as="geometry" />
        </mxCell>
        <mxCell id="SLbRJCfgujYiKdR8xFGR-86" value="" style="edgeStyle=orthogonalEdgeStyle;rounded=0;orthogonalLoop=1;jettySize=auto;html=1;entryX=0.5;entryY=0;entryDx=0;entryDy=0;fontSize=14;fontStyle=1" edge="1" parent="SLbRJCfgujYiKdR8xFGR-7">
          <mxGeometry relative="1" as="geometry">
            <mxPoint x="117.13291139240505" y="585" as="sourcePoint" />
            <mxPoint x="117.13291139240505" y="630" as="targetPoint" />
            <Array as="points" />
          </mxGeometry>
        </mxCell>
        <mxCell id="SLbRJCfgujYiKdR8xFGR-3" value="&lt;p style=&quot;margin: 4px 0px 0px; text-align: center; font-size: 14px;&quot;&gt;&lt;/p&gt;&lt;p style=&quot;font-size: 14px;&quot;&gt;&lt;/p&gt;" style="shape=rect;html=1;overflow=fill;whiteSpace=wrap;align=center;verticalAlign=top;fontStyle=1;fontSize=14;" vertex="1" parent="SLbRJCfgujYiKdR8xFGR-87">
          <mxGeometry x="341.39240506329116" y="30" width="317.8481012658228" height="1400" as="geometry" />
        </mxCell>
        <mxCell id="SLbRJCfgujYiKdR8xFGR-22" value="Online land sales system" style="rounded=0;whiteSpace=wrap;html=1;fontStyle=1;align=center;fontSize=14;" vertex="1" parent="SLbRJCfgujYiKdR8xFGR-87">
          <mxGeometry width="929.9999999999999" height="30" as="geometry" />
        </mxCell>
        <mxCell id="SLbRJCfgujYiKdR8xFGR-23" value="" style="endArrow=none;html=1;rounded=0;exitX=0.007;exitY=0.038;exitDx=0;exitDy=0;exitPerimeter=0;fontSize=14;fontStyle=1" edge="1" parent="SLbRJCfgujYiKdR8xFGR-87" source="SLbRJCfgujYiKdR8xFGR-1">
          <mxGeometry width="50" height="50" relative="1" as="geometry">
            <mxPoint x="58.860759493670884" y="120" as="sourcePoint" />
            <mxPoint x="930" y="83" as="targetPoint" />
          </mxGeometry>
        </mxCell>
        <mxCell id="SLbRJCfgujYiKdR8xFGR-24" value="USER" style="text;html=1;align=center;verticalAlign=middle;whiteSpace=wrap;rounded=0;fontStyle=1;fontSize=14;" vertex="1" parent="SLbRJCfgujYiKdR8xFGR-87">
          <mxGeometry x="117.72151898734177" y="40" width="70.63291139240506" height="30" as="geometry" />
        </mxCell>
        <mxCell id="SLbRJCfgujYiKdR8xFGR-25" value="SYSTEM" style="text;html=1;align=center;verticalAlign=middle;whiteSpace=wrap;rounded=0;fontStyle=1;fontSize=14;" vertex="1" parent="SLbRJCfgujYiKdR8xFGR-87">
          <mxGeometry x="447.34177215189874" y="40" width="70.63291139240506" height="30" as="geometry" />
        </mxCell>
        <mxCell id="SLbRJCfgujYiKdR8xFGR-27" value="" style="ellipse;html=1;shape=startState;fontSize=14;fillColor=#000000;fontStyle=1" vertex="1" parent="SLbRJCfgujYiKdR8xFGR-87">
          <mxGeometry x="135.37974683544303" y="100" width="35.31645569620253" height="30" as="geometry" />
        </mxCell>
        <mxCell id="SLbRJCfgujYiKdR8xFGR-29" value="" style="endArrow=classic;html=1;rounded=0;exitX=1;exitY=0.5;exitDx=0;exitDy=0;entryX=0;entryY=0.25;entryDx=0;entryDy=0;fontSize=14;fontStyle=1" edge="1" parent="SLbRJCfgujYiKdR8xFGR-87" source="SLbRJCfgujYiKdR8xFGR-27" target="SLbRJCfgujYiKdR8xFGR-30">
          <mxGeometry width="50" height="50" relative="1" as="geometry">
            <mxPoint x="200.126582278481" y="170" as="sourcePoint" />
            <mxPoint x="258.98734177215186" y="120" as="targetPoint" />
          </mxGeometry>
        </mxCell>
        <mxCell id="SLbRJCfgujYiKdR8xFGR-30" value="Display Homepage" style="rounded=1;whiteSpace=wrap;html=1;fontStyle=1;fontSize=14;" vertex="1" parent="SLbRJCfgujYiKdR8xFGR-87">
          <mxGeometry x="412.02531645569616" y="100" width="141.26582278481013" height="60" as="geometry" />
        </mxCell>
        <mxCell id="SLbRJCfgujYiKdR8xFGR-31" value="" style="endArrow=classic;html=1;rounded=0;exitX=0.5;exitY=1;exitDx=0;exitDy=0;entryX=1;entryY=0.5;entryDx=0;entryDy=0;fontSize=14;fontStyle=1" edge="1" parent="SLbRJCfgujYiKdR8xFGR-87" source="SLbRJCfgujYiKdR8xFGR-30" target="SLbRJCfgujYiKdR8xFGR-32">
          <mxGeometry width="50" height="50" relative="1" as="geometry">
            <mxPoint x="182.46835443037972" y="125" as="sourcePoint" />
            <mxPoint x="423.79746835443035" y="125" as="targetPoint" />
            <Array as="points">
              <mxPoint x="482.65822784810126" y="200" />
            </Array>
          </mxGeometry>
        </mxCell>
        <mxCell id="SLbRJCfgujYiKdR8xFGR-34" value="" style="edgeStyle=orthogonalEdgeStyle;rounded=0;orthogonalLoop=1;jettySize=auto;html=1;fontSize=14;fontStyle=1" edge="1" parent="SLbRJCfgujYiKdR8xFGR-87" source="SLbRJCfgujYiKdR8xFGR-32" target="SLbRJCfgujYiKdR8xFGR-33">
          <mxGeometry relative="1" as="geometry" />
        </mxCell>
        <mxCell id="SLbRJCfgujYiKdR8xFGR-32" value="Select lands&amp;nbsp;&lt;div style=&quot;font-size: 14px;&quot;&gt;filter preference&lt;/div&gt;" style="rounded=1;whiteSpace=wrap;html=1;fontStyle=1;fontSize=14;" vertex="1" parent="SLbRJCfgujYiKdR8xFGR-87">
          <mxGeometry x="82.40506329113924" y="170" width="141.26582278481013" height="60" as="geometry" />
        </mxCell>
        <mxCell id="SLbRJCfgujYiKdR8xFGR-36" value="" style="edgeStyle=orthogonalEdgeStyle;rounded=0;orthogonalLoop=1;jettySize=auto;html=1;fontSize=14;fontStyle=1" edge="1" parent="SLbRJCfgujYiKdR8xFGR-87" source="SLbRJCfgujYiKdR8xFGR-33">
          <mxGeometry relative="1" as="geometry">
            <mxPoint x="153.0379746835443" y="370" as="targetPoint" />
          </mxGeometry>
        </mxCell>
        <mxCell id="SLbRJCfgujYiKdR8xFGR-33" value="Press signup&amp;nbsp;&lt;div style=&quot;font-size: 14px;&quot;&gt;button&lt;/div&gt;" style="rounded=1;whiteSpace=wrap;html=1;fontStyle=1;fontSize=14;" vertex="1" parent="SLbRJCfgujYiKdR8xFGR-87">
          <mxGeometry x="82.40506329113924" y="270" width="141.26582278481013" height="60" as="geometry" />
        </mxCell>
        <mxCell id="SLbRJCfgujYiKdR8xFGR-41" value="" style="edgeStyle=orthogonalEdgeStyle;rounded=0;orthogonalLoop=1;jettySize=auto;html=1;fontSize=14;fontStyle=1" edge="1" parent="SLbRJCfgujYiKdR8xFGR-87" target="SLbRJCfgujYiKdR8xFGR-37">
          <mxGeometry relative="1" as="geometry">
            <mxPoint x="223.67088607594937" y="400" as="sourcePoint" />
          </mxGeometry>
        </mxCell>
        <mxCell id="SLbRJCfgujYiKdR8xFGR-37" value="Validate entered&amp;nbsp;&lt;div style=&quot;font-size: 14px;&quot;&gt;credentials&lt;/div&gt;" style="rounded=1;whiteSpace=wrap;html=1;fontStyle=1;fontSize=14;" vertex="1" parent="SLbRJCfgujYiKdR8xFGR-87">
          <mxGeometry x="412.02531645569616" y="370" width="141.26582278481013" height="60" as="geometry" />
        </mxCell>
        <mxCell id="SLbRJCfgujYiKdR8xFGR-42" value="&lt;span style=&quot;font-size: 14px;&quot;&gt;Enter user details&lt;/span&gt;" style="html=1;shape=mxgraph.sysml.callBehAct;whiteSpace=wrap;align=center;fontSize=14;fontStyle=1" vertex="1" parent="SLbRJCfgujYiKdR8xFGR-87">
          <mxGeometry x="82.40506329113924" y="370" width="141.26582278481013" height="70" as="geometry" />
        </mxCell>
        <mxCell id="SLbRJCfgujYiKdR8xFGR-50" value="" style="edgeStyle=orthogonalEdgeStyle;rounded=0;orthogonalLoop=1;jettySize=auto;html=1;fontSize=14;fontStyle=1" edge="1" parent="SLbRJCfgujYiKdR8xFGR-87" source="SLbRJCfgujYiKdR8xFGR-43" target="SLbRJCfgujYiKdR8xFGR-49">
          <mxGeometry relative="1" as="geometry">
            <Array as="points">
              <mxPoint x="482.65822784810126" y="610" />
              <mxPoint x="482.65822784810126" y="610" />
            </Array>
          </mxGeometry>
        </mxCell>
        <mxCell id="SLbRJCfgujYiKdR8xFGR-43" value="" style="shape=rhombus;html=1;verticalLabelPosition=bottom;verticalAlignment=top;fontSize=14;fontStyle=1" vertex="1" parent="SLbRJCfgujYiKdR8xFGR-87">
          <mxGeometry x="441.4556962025316" y="475" width="82.40506329113924" height="70" as="geometry" />
        </mxCell>
        <mxCell id="SLbRJCfgujYiKdR8xFGR-44" value="" style="edgeStyle=elbowEdgeStyle;html=1;elbow=horizontal;align=right;verticalAlign=bottom;endArrow=none;rounded=0;labelBackgroundColor=none;startArrow=open;startSize=12;fontSize=14;fontStyle=1" edge="1" source="SLbRJCfgujYiKdR8xFGR-43" parent="SLbRJCfgujYiKdR8xFGR-87">
          <mxGeometry relative="1" as="geometry">
            <mxPoint x="482.65822784810126" y="430" as="targetPoint" />
          </mxGeometry>
        </mxCell>
        <mxCell id="SLbRJCfgujYiKdR8xFGR-47" value="" style="edgeStyle=orthogonalEdgeStyle;rounded=0;orthogonalLoop=1;jettySize=auto;html=1;exitX=0;exitY=0.5;exitDx=0;exitDy=0;entryX=0.5;entryY=1;entryDx=0;entryDy=0;entryPerimeter=0;fontSize=14;fontStyle=1" edge="1" parent="SLbRJCfgujYiKdR8xFGR-87" source="SLbRJCfgujYiKdR8xFGR-43" target="SLbRJCfgujYiKdR8xFGR-42">
          <mxGeometry relative="1" as="geometry">
            <mxPoint x="235.44303797468353" y="410" as="sourcePoint" />
            <mxPoint x="423.79746835443035" y="410" as="targetPoint" />
          </mxGeometry>
        </mxCell>
        <mxCell id="SLbRJCfgujYiKdR8xFGR-48" value="[Not valid credentials]" style="text;html=1;align=center;verticalAlign=middle;whiteSpace=wrap;rounded=0;fontStyle=1;fontSize=14;" vertex="1" parent="SLbRJCfgujYiKdR8xFGR-87">
          <mxGeometry x="347.27848101265823" y="475" width="94.17721518987342" height="30" as="geometry" />
        </mxCell>
        <mxCell id="SLbRJCfgujYiKdR8xFGR-49" value="" style="html=1;points=[];perimeter=orthogonalPerimeter;fillColor=strokeColor;direction=south;fontSize=14;fontStyle=1" vertex="1" parent="SLbRJCfgujYiKdR8xFGR-87">
          <mxGeometry x="441.4556962025316" y="610" width="394.36708860759495" height="5" as="geometry" />
        </mxCell>
        <mxCell id="SLbRJCfgujYiKdR8xFGR-51" value="[valid credentials]" style="text;html=1;align=center;verticalAlign=middle;whiteSpace=wrap;rounded=0;fontStyle=1;fontSize=14;" vertex="1" parent="SLbRJCfgujYiKdR8xFGR-87">
          <mxGeometry x="482.65822784810126" y="550" width="129.49367088607593" height="30" as="geometry" />
        </mxCell>
        <mxCell id="SLbRJCfgujYiKdR8xFGR-53" value="" style="edgeStyle=orthogonalEdgeStyle;rounded=0;orthogonalLoop=1;jettySize=auto;html=1;entryX=0.5;entryY=0;entryDx=0;entryDy=0;fontSize=14;fontStyle=1" edge="1" parent="SLbRJCfgujYiKdR8xFGR-87" target="SLbRJCfgujYiKdR8xFGR-52">
          <mxGeometry relative="1" as="geometry">
            <mxPoint x="517.9746835443037" y="615" as="sourcePoint" />
            <mxPoint x="517.9746835443037" y="640" as="targetPoint" />
            <Array as="points" />
          </mxGeometry>
        </mxCell>
        <mxCell id="SLbRJCfgujYiKdR8xFGR-52" value="Sends verification&lt;br style=&quot;font-size: 14px;&quot;&gt;Email" style="rounded=1;whiteSpace=wrap;html=1;fontStyle=1;fontSize=14;" vertex="1" parent="SLbRJCfgujYiKdR8xFGR-87">
          <mxGeometry x="447.34177215189874" y="660" width="141.26582278481013" height="60" as="geometry" />
        </mxCell>
        <mxCell id="SLbRJCfgujYiKdR8xFGR-70" value="" style="edgeStyle=orthogonalEdgeStyle;rounded=0;orthogonalLoop=1;jettySize=auto;html=1;fontSize=14;fontStyle=1" edge="1" parent="SLbRJCfgujYiKdR8xFGR-87" source="SLbRJCfgujYiKdR8xFGR-58" target="SLbRJCfgujYiKdR8xFGR-69">
          <mxGeometry relative="1" as="geometry" />
        </mxCell>
        <mxCell id="SLbRJCfgujYiKdR8xFGR-58" value="Recieve confirmation Email" style="rounded=1;whiteSpace=wrap;html=1;fontStyle=1;fontSize=14;" vertex="1" parent="SLbRJCfgujYiKdR8xFGR-87">
          <mxGeometry x="84.72417721518987" y="760" width="138.9499896244034" height="60.00000000000001" as="geometry" />
        </mxCell>
        <mxCell id="SLbRJCfgujYiKdR8xFGR-57" value="" style="edgeStyle=orthogonalEdgeStyle;rounded=0;orthogonalLoop=1;jettySize=auto;html=1;exitX=0.5;exitY=1;exitDx=0;exitDy=0;fontSize=14;fontStyle=1" edge="1" parent="SLbRJCfgujYiKdR8xFGR-87" source="SLbRJCfgujYiKdR8xFGR-52">
          <mxGeometry relative="1" as="geometry">
            <mxPoint x="517.9746835443037" y="740" as="sourcePoint" />
            <mxPoint x="151.86075949367088" y="760" as="targetPoint" />
            <Array as="points">
              <mxPoint x="517.9746835443037" y="740" />
              <mxPoint x="151.86075949367088" y="740" />
            </Array>
          </mxGeometry>
        </mxCell>
        <mxCell id="SLbRJCfgujYiKdR8xFGR-68" value="" style="edgeStyle=elbowEdgeStyle;rounded=0;orthogonalLoop=1;jettySize=auto;html=1;entryX=1;entryY=0.5;entryDx=0;entryDy=0;fontSize=14;exitX=0.5;exitY=1;exitDx=0;exitDy=0;fontStyle=1" edge="1" parent="SLbRJCfgujYiKdR8xFGR-87" source="SLbRJCfgujYiKdR8xFGR-55" target="SLbRJCfgujYiKdR8xFGR-66">
          <mxGeometry relative="1" as="geometry">
            <mxPoint x="776.9620253164557" y="740" as="sourcePoint" />
            <mxPoint x="553.2911392405063" y="810" as="targetPoint" />
            <Array as="points">
              <mxPoint x="776.9620253164557" y="780" />
            </Array>
          </mxGeometry>
        </mxCell>
        <mxCell id="SLbRJCfgujYiKdR8xFGR-66" value="Activate user account" style="rounded=1;whiteSpace=wrap;html=1;fontStyle=1;fontSize=14;" vertex="1" parent="SLbRJCfgujYiKdR8xFGR-87">
          <mxGeometry x="447.34177215189874" y="760" width="138.9499896244034" height="60.00000000000001" as="geometry" />
        </mxCell>
        <mxCell id="SLbRJCfgujYiKdR8xFGR-69" value="Press confirmation" style="rounded=1;whiteSpace=wrap;html=1;fontStyle=1;fontSize=14;" vertex="1" parent="SLbRJCfgujYiKdR8xFGR-87">
          <mxGeometry x="84.72417721518987" y="850" width="138.9499896244034" height="60.00000000000001" as="geometry" />
        </mxCell>
        <mxCell id="SLbRJCfgujYiKdR8xFGR-71" value="" style="html=1;points=[];perimeter=orthogonalPerimeter;fillColor=strokeColor;direction=south;fontSize=14;fontStyle=1" vertex="1" parent="SLbRJCfgujYiKdR8xFGR-87">
          <mxGeometry x="129.49367088607593" y="970" width="423.79746835443035" height="5" as="geometry" />
        </mxCell>
        <mxCell id="SLbRJCfgujYiKdR8xFGR-72" value="" style="edgeStyle=orthogonalEdgeStyle;rounded=0;orthogonalLoop=1;jettySize=auto;html=1;entryX=0;entryY=0.943;entryDx=0;entryDy=0;entryPerimeter=0;fontSize=14;fontStyle=1" edge="1" parent="SLbRJCfgujYiKdR8xFGR-87" target="SLbRJCfgujYiKdR8xFGR-71">
          <mxGeometry relative="1" as="geometry">
            <mxPoint x="153.61481012658226" y="910" as="sourcePoint" />
            <mxPoint x="153.61481012658226" y="940" as="targetPoint" />
            <Array as="points" />
          </mxGeometry>
        </mxCell>
        <mxCell id="SLbRJCfgujYiKdR8xFGR-73" value="" style="edgeStyle=orthogonalEdgeStyle;rounded=0;orthogonalLoop=1;jettySize=auto;html=1;entryX=0.44;entryY=0.084;entryDx=0;entryDy=0;entryPerimeter=0;fontSize=14;fontStyle=1" edge="1" parent="SLbRJCfgujYiKdR8xFGR-87" target="SLbRJCfgujYiKdR8xFGR-71">
          <mxGeometry relative="1" as="geometry">
            <mxPoint x="516.2206329113924" y="820" as="sourcePoint" />
            <mxPoint x="516.7974683544303" y="960" as="targetPoint" />
            <Array as="points" />
          </mxGeometry>
        </mxCell>
        <mxCell id="SLbRJCfgujYiKdR8xFGR-74" value="" style="edgeStyle=orthogonalEdgeStyle;rounded=0;orthogonalLoop=1;jettySize=auto;html=1;entryX=0.5;entryY=0;entryDx=0;entryDy=0;fontSize=14;fontStyle=1" edge="1" parent="SLbRJCfgujYiKdR8xFGR-87" target="SLbRJCfgujYiKdR8xFGR-75">
          <mxGeometry relative="1" as="geometry">
            <mxPoint x="447.34177215189874" y="975" as="sourcePoint" />
            <mxPoint x="447.94215189873415" y="1035" as="targetPoint" />
            <Array as="points" />
          </mxGeometry>
        </mxCell>
        <mxCell id="SLbRJCfgujYiKdR8xFGR-75" value="Navigate to&amp;nbsp;&lt;div style=&quot;font-size: 14px;&quot;&gt;&quot;All lands&quot; page&lt;/div&gt;" style="rounded=1;whiteSpace=wrap;html=1;fontStyle=1;fontSize=14;" vertex="1" parent="SLbRJCfgujYiKdR8xFGR-87">
          <mxGeometry x="379.0279746835443" y="1040" width="138.9499896244034" height="60.00000000000001" as="geometry" />
        </mxCell>
        <mxCell id="SLbRJCfgujYiKdR8xFGR-76" value="" style="edgeStyle=elbowEdgeStyle;rounded=0;orthogonalLoop=1;jettySize=auto;html=1;entryX=1;entryY=0.5;entryDx=0;entryDy=0;fontSize=14;fontStyle=1" edge="1" parent="SLbRJCfgujYiKdR8xFGR-87" target="SLbRJCfgujYiKdR8xFGR-77">
          <mxGeometry relative="1" as="geometry">
            <mxPoint x="447.33" y="1100" as="sourcePoint" />
            <mxPoint x="258.98734177215186" y="1160" as="targetPoint" />
            <Array as="points">
              <mxPoint x="447.34177215189874" y="1140" />
            </Array>
          </mxGeometry>
        </mxCell>
        <mxCell id="SLbRJCfgujYiKdR8xFGR-77" value="Select preferred&lt;div style=&quot;font-size: 14px;&quot;&gt;land&lt;/div&gt;" style="rounded=1;whiteSpace=wrap;html=1;fontStyle=1;fontSize=14;" vertex="1" parent="SLbRJCfgujYiKdR8xFGR-87">
          <mxGeometry x="82.40506329113924" y="1110" width="138.9499896244034" height="60.00000000000001" as="geometry" />
        </mxCell>
        <mxCell id="SLbRJCfgujYiKdR8xFGR-78" value="Display land details" style="rounded=1;whiteSpace=wrap;html=1;fontStyle=1;fontSize=14;" vertex="1" parent="SLbRJCfgujYiKdR8xFGR-87">
          <mxGeometry x="379.0279746835443" y="1190" width="138.9499896244034" height="60.00000000000001" as="geometry" />
        </mxCell>
        <mxCell id="SLbRJCfgujYiKdR8xFGR-79" value="" style="edgeStyle=elbowEdgeStyle;rounded=0;orthogonalLoop=1;jettySize=auto;html=1;entryX=0;entryY=0.5;entryDx=0;entryDy=0;fontSize=14;fontStyle=1" edge="1" parent="SLbRJCfgujYiKdR8xFGR-87" target="SLbRJCfgujYiKdR8xFGR-78">
          <mxGeometry relative="1" as="geometry">
            <mxPoint x="155.3806329113924" y="1170" as="sourcePoint" />
            <mxPoint x="-70.63291139240506" y="1210" as="targetPoint" />
            <Array as="points">
              <mxPoint x="155.39240506329114" y="1210" />
            </Array>
          </mxGeometry>
        </mxCell>
        <mxCell id="SLbRJCfgujYiKdR8xFGR-80" value="" style="edgeStyle=elbowEdgeStyle;rounded=0;orthogonalLoop=1;jettySize=auto;html=1;entryX=1;entryY=0.5;entryDx=0;entryDy=0;fontSize=14;fontStyle=1" edge="1" parent="SLbRJCfgujYiKdR8xFGR-87" target="SLbRJCfgujYiKdR8xFGR-81">
          <mxGeometry relative="1" as="geometry">
            <mxPoint x="447.33" y="1250" as="sourcePoint" />
            <mxPoint x="258.98734177215186" y="1310" as="targetPoint" />
            <Array as="points">
              <mxPoint x="447.34177215189874" y="1290" />
            </Array>
          </mxGeometry>
        </mxCell>
        <mxCell id="SLbRJCfgujYiKdR8xFGR-83" value="" style="edgeStyle=elbowEdgeStyle;rounded=0;orthogonalLoop=1;jettySize=auto;html=1;fontSize=14;fontStyle=1" edge="1" parent="SLbRJCfgujYiKdR8xFGR-87" source="SLbRJCfgujYiKdR8xFGR-81" target="SLbRJCfgujYiKdR8xFGR-82">
          <mxGeometry relative="1" as="geometry" />
        </mxCell>
        <mxCell id="SLbRJCfgujYiKdR8xFGR-81" value="Request to purchuse land" style="rounded=1;whiteSpace=wrap;html=1;fontStyle=1;fontSize=14;" vertex="1" parent="SLbRJCfgujYiKdR8xFGR-87">
          <mxGeometry x="82.40506329113924" y="1260" width="138.9499896244034" height="60.00000000000001" as="geometry" />
        </mxCell>
        <mxCell id="SLbRJCfgujYiKdR8xFGR-82" value="" style="ellipse;html=1;shape=endState;fontSize=14;fillColor=#000000;fontStyle=1" vertex="1" parent="SLbRJCfgujYiKdR8xFGR-87">
          <mxGeometry x="136.55696202531647" y="1370" width="35.31645569620253" height="30" as="geometry" />
        </mxCell>
        <mxCell id="SLbRJCfgujYiKdR8xFGR-84" value="Start" style="text;html=1;align=center;verticalAlign=middle;whiteSpace=wrap;rounded=0;fontStyle=1;fontSize=14;" vertex="1" parent="SLbRJCfgujYiKdR8xFGR-87">
          <mxGeometry x="117.72151898734177" y="80" width="70.63291139240506" height="30" as="geometry" />
        </mxCell>
        <mxCell id="SLbRJCfgujYiKdR8xFGR-85" value="Stop" style="text;html=1;align=center;verticalAlign=middle;whiteSpace=wrap;rounded=0;fontStyle=1;fontSize=14;" vertex="1" parent="SLbRJCfgujYiKdR8xFGR-87">
          <mxGeometry x="118.89873417721518" y="1400" width="70.63291139240506" height="30" as="geometry" />
        </mxCell>
        <mxCell id="SLbRJCfgujYiKdR8xFGR-88" value="" style="group;fontSize=14;fontStyle=1" vertex="1" connectable="0" parent="1">
          <mxGeometry x="-20" y="1620" width="920" height="1430" as="geometry" />
        </mxCell>
        <mxCell id="SLbRJCfgujYiKdR8xFGR-89" value="&lt;p style=&quot;margin: 4px 0px 0px; text-align: center; font-size: 14px;&quot;&gt;&lt;/p&gt;&lt;p style=&quot;font-size: 14px;&quot;&gt;&lt;/p&gt;" style="shape=rect;html=1;overflow=fill;whiteSpace=wrap;align=center;verticalAlign=top;fontStyle=1;fontSize=14;" vertex="1" parent="SLbRJCfgujYiKdR8xFGR-88">
          <mxGeometry y="30" width="477.4683544303798" height="970" as="geometry" />
        </mxCell>
        <mxCell id="SLbRJCfgujYiKdR8xFGR-95" value="&lt;p style=&quot;margin: 4px 0px 0px; text-align: center; font-size: 14px;&quot;&gt;&lt;/p&gt;&lt;p style=&quot;font-size: 14px;&quot;&gt;&lt;/p&gt;" style="shape=rect;html=1;overflow=fill;whiteSpace=wrap;align=center;verticalAlign=top;fontStyle=1;fontSize=14;" vertex="1" parent="SLbRJCfgujYiKdR8xFGR-88">
          <mxGeometry x="477.4683544303798" y="30" width="442.53164556962025" height="970" as="geometry" />
        </mxCell>
        <mxCell id="SLbRJCfgujYiKdR8xFGR-96" value="Online land sales system" style="rounded=0;whiteSpace=wrap;html=1;fontStyle=1;align=center;fontSize=14;" vertex="1" parent="SLbRJCfgujYiKdR8xFGR-88">
          <mxGeometry width="920" height="30" as="geometry" />
        </mxCell>
        <mxCell id="SLbRJCfgujYiKdR8xFGR-97" value="" style="endArrow=none;html=1;rounded=0;exitX=0.007;exitY=0.038;exitDx=0;exitDy=0;exitPerimeter=0;fontSize=14;fontStyle=1" edge="1" parent="SLbRJCfgujYiKdR8xFGR-88">
          <mxGeometry width="50" height="50" relative="1" as="geometry">
            <mxPoint x="-3.154719804656395e-14" y="69.99999999999982" as="sourcePoint" />
            <mxPoint x="920" y="70" as="targetPoint" />
          </mxGeometry>
        </mxCell>
        <mxCell id="SLbRJCfgujYiKdR8xFGR-98" value="USER" style="text;html=1;align=center;verticalAlign=middle;whiteSpace=wrap;rounded=0;fontStyle=1;fontSize=14;" vertex="1" parent="SLbRJCfgujYiKdR8xFGR-88">
          <mxGeometry x="116.45569620253164" y="40" width="69.87341772151899" height="30" as="geometry" />
        </mxCell>
        <mxCell id="SLbRJCfgujYiKdR8xFGR-99" value="SYSTEM" style="text;html=1;align=center;verticalAlign=middle;whiteSpace=wrap;rounded=0;fontStyle=1;fontSize=14;" vertex="1" parent="SLbRJCfgujYiKdR8xFGR-88">
          <mxGeometry x="605.5696202531645" y="40" width="69.87341772151899" height="30" as="geometry" />
        </mxCell>
        <mxCell id="SLbRJCfgujYiKdR8xFGR-100" value="" style="ellipse;html=1;shape=startState;fontSize=14;fillColor=#000000;fontStyle=1" vertex="1" parent="SLbRJCfgujYiKdR8xFGR-88">
          <mxGeometry x="133.92405063291142" y="100" width="34.936708860759495" height="30" as="geometry" />
        </mxCell>
        <mxCell id="SLbRJCfgujYiKdR8xFGR-101" value="" style="endArrow=classic;html=1;rounded=0;exitX=1;exitY=0.5;exitDx=0;exitDy=0;entryX=0;entryY=0.25;entryDx=0;entryDy=0;fontSize=14;fontStyle=1" edge="1" parent="SLbRJCfgujYiKdR8xFGR-88" source="SLbRJCfgujYiKdR8xFGR-100" target="SLbRJCfgujYiKdR8xFGR-102">
          <mxGeometry width="50" height="50" relative="1" as="geometry">
            <mxPoint x="197.97468354430382" y="170" as="sourcePoint" />
            <mxPoint x="256.20253164556965" y="120" as="targetPoint" />
          </mxGeometry>
        </mxCell>
        <mxCell id="SLbRJCfgujYiKdR8xFGR-102" value="Display a register&lt;div style=&quot;font-size: 14px;&quot;&gt;form&lt;/div&gt;" style="rounded=1;whiteSpace=wrap;html=1;fontStyle=1;fontSize=14;" vertex="1" parent="SLbRJCfgujYiKdR8xFGR-88">
          <mxGeometry x="593.9240506329114" y="100" width="139.74683544303798" height="60" as="geometry" />
        </mxCell>
        <mxCell id="SLbRJCfgujYiKdR8xFGR-120" value="" style="edgeStyle=orthogonalEdgeStyle;rounded=0;orthogonalLoop=1;jettySize=auto;html=1;fontSize=13;" edge="1" parent="SLbRJCfgujYiKdR8xFGR-88" target="SLbRJCfgujYiKdR8xFGR-125">
          <mxGeometry relative="1" as="geometry">
            <mxPoint x="152.55696202531647" y="820" as="sourcePoint" />
          </mxGeometry>
        </mxCell>
        <mxCell id="SLbRJCfgujYiKdR8xFGR-138" value="" style="ellipse;html=1;shape=endState;fontSize=14;fillColor=#000000;fontStyle=1" vertex="1" parent="SLbRJCfgujYiKdR8xFGR-88">
          <mxGeometry x="203.79746835443038" y="910" width="34.936708860759495" height="30" as="geometry" />
        </mxCell>
        <mxCell id="SLbRJCfgujYiKdR8xFGR-139" value="Start" style="text;html=1;align=center;verticalAlign=middle;whiteSpace=wrap;rounded=0;fontStyle=1;fontSize=14;" vertex="1" parent="SLbRJCfgujYiKdR8xFGR-88">
          <mxGeometry x="116.45569620253164" y="80" width="69.87341772151899" height="30" as="geometry" />
        </mxCell>
        <mxCell id="SLbRJCfgujYiKdR8xFGR-140" value="Stop" style="text;html=1;align=center;verticalAlign=middle;whiteSpace=wrap;rounded=0;fontStyle=1;fontSize=14;" vertex="1" parent="SLbRJCfgujYiKdR8xFGR-88">
          <mxGeometry x="186.32911392405066" y="940" width="69.87341772151899" height="30" as="geometry" />
        </mxCell>
        <mxCell id="SLbRJCfgujYiKdR8xFGR-194" value="" style="endArrow=classic;html=1;rounded=0;fontSize=14;edgeStyle=elbowEdgeStyle;fontStyle=1;entryX=0.2;entryY=0.562;entryDx=0;entryDy=0;entryPerimeter=0;exitX=0.5;exitY=1;exitDx=0;exitDy=0;elbow=vertical;" edge="1" parent="SLbRJCfgujYiKdR8xFGR-88" source="SLbRJCfgujYiKdR8xFGR-102" target="SLbRJCfgujYiKdR8xFGR-195">
          <mxGeometry width="50" height="50" relative="1" as="geometry">
            <mxPoint x="180.50632911392407" y="125" as="sourcePoint" />
            <mxPoint x="213.1139240506329" y="190" as="targetPoint" />
          </mxGeometry>
        </mxCell>
        <mxCell id="SLbRJCfgujYiKdR8xFGR-195" value="" style="html=1;points=[];perimeter=orthogonalPerimeter;fillColor=strokeColor;direction=south;fontSize=14;fontStyle=1" vertex="1" parent="SLbRJCfgujYiKdR8xFGR-88">
          <mxGeometry x="29.11392405063291" y="220" width="419.240506329114" height="5" as="geometry" />
        </mxCell>
        <mxCell id="SLbRJCfgujYiKdR8xFGR-197" value="" style="endArrow=classic;html=1;rounded=0;elbow=vertical;exitX=2;exitY=0.875;exitDx=0;exitDy=0;exitPerimeter=0;entryX=0.5;entryY=0;entryDx=0;entryDy=0;fontSize=14;" edge="1" parent="SLbRJCfgujYiKdR8xFGR-88" source="SLbRJCfgujYiKdR8xFGR-195" target="SLbRJCfgujYiKdR8xFGR-198">
          <mxGeometry width="50" height="50" relative="1" as="geometry">
            <mxPoint x="93.16455696202533" y="350" as="sourcePoint" />
            <mxPoint x="163.03797468354432" y="290" as="targetPoint" />
          </mxGeometry>
        </mxCell>
        <mxCell id="SLbRJCfgujYiKdR8xFGR-198" value="Enter username" style="rounded=1;whiteSpace=wrap;html=1;fontStyle=1;fontSize=14;" vertex="1" parent="SLbRJCfgujYiKdR8xFGR-88">
          <mxGeometry x="11.645569620253166" y="270" width="139.74683544303798" height="60" as="geometry" />
        </mxCell>
        <mxCell id="SLbRJCfgujYiKdR8xFGR-199" value="Enter Email" style="rounded=1;whiteSpace=wrap;html=1;fontStyle=1;fontSize=14;" vertex="1" parent="SLbRJCfgujYiKdR8xFGR-88">
          <mxGeometry x="279.49367088607596" y="270" width="139.74683544303798" height="60" as="geometry" />
        </mxCell>
        <mxCell id="SLbRJCfgujYiKdR8xFGR-200" value="" style="endArrow=classic;html=1;rounded=0;elbow=vertical;exitX=2;exitY=0.875;exitDx=0;exitDy=0;exitPerimeter=0;entryX=0.5;entryY=0;entryDx=0;entryDy=0;fontSize=14;" edge="1" parent="SLbRJCfgujYiKdR8xFGR-88">
          <mxGeometry width="50" height="50" relative="1" as="geometry">
            <mxPoint x="349.36708860759495" y="230" as="sourcePoint" />
            <mxPoint x="349.36708860759495" y="270" as="targetPoint" />
          </mxGeometry>
        </mxCell>
        <mxCell id="SLbRJCfgujYiKdR8xFGR-202" value="" style="shape=rhombus;html=1;verticalLabelPosition=bottom;verticalAlignment=top;fontSize=14;" vertex="1" parent="SLbRJCfgujYiKdR8xFGR-88">
          <mxGeometry x="617.2151898734178" y="370" width="93.16455696202533" height="80" as="geometry" />
        </mxCell>
        <mxCell id="SLbRJCfgujYiKdR8xFGR-208" value="" style="endArrow=classic;html=1;rounded=0;fontSize=14;edgeStyle=elbowEdgeStyle;fontStyle=1;entryX=0.5;entryY=0;entryDx=0;entryDy=0;exitX=0.5;exitY=1;exitDx=0;exitDy=0;" edge="1" parent="SLbRJCfgujYiKdR8xFGR-88" target="SLbRJCfgujYiKdR8xFGR-202">
          <mxGeometry width="50" height="50" relative="1" as="geometry">
            <mxPoint x="419.240506329114" y="290" as="sourcePoint" />
            <mxPoint x="-31.443037974683545" y="351" as="targetPoint" />
            <Array as="points">
              <mxPoint x="663.7974683544304" y="300" />
            </Array>
          </mxGeometry>
        </mxCell>
        <mxCell id="SLbRJCfgujYiKdR8xFGR-209" value="" style="endArrow=classic;html=1;rounded=0;exitX=0;exitY=0.5;exitDx=0;exitDy=0;entryX=1;entryY=0.5;entryDx=0;entryDy=0;fontSize=14;" edge="1" parent="SLbRJCfgujYiKdR8xFGR-88" source="SLbRJCfgujYiKdR8xFGR-202" target="SLbRJCfgujYiKdR8xFGR-210">
          <mxGeometry width="50" height="50" relative="1" as="geometry">
            <mxPoint x="337.72151898734177" y="460" as="sourcePoint" />
            <mxPoint x="489.11392405063293" y="390" as="targetPoint" />
          </mxGeometry>
        </mxCell>
        <mxCell id="SLbRJCfgujYiKdR8xFGR-210" value="Modify Email" style="rounded=1;whiteSpace=wrap;html=1;fontStyle=1;fontSize=14;" vertex="1" parent="SLbRJCfgujYiKdR8xFGR-88">
          <mxGeometry x="279.49367088607596" y="380" width="139.74683544303798" height="60" as="geometry" />
        </mxCell>
        <mxCell id="SLbRJCfgujYiKdR8xFGR-211" value="[Invalid]" style="text;html=1;align=center;verticalAlign=middle;whiteSpace=wrap;rounded=0;fontStyle=1;fontSize=14;" vertex="1" parent="SLbRJCfgujYiKdR8xFGR-88">
          <mxGeometry x="506.5822784810127" y="380" width="69.87341772151899" height="30" as="geometry" />
        </mxCell>
        <mxCell id="SLbRJCfgujYiKdR8xFGR-212" value="" style="endArrow=classic;html=1;rounded=0;exitX=0.5;exitY=1;exitDx=0;exitDy=0;entryX=-0.6;entryY=0.262;entryDx=0;entryDy=0;edgeStyle=orthogonalEdgeStyle;entryPerimeter=0;fontSize=14;" edge="1" parent="SLbRJCfgujYiKdR8xFGR-88" source="SLbRJCfgujYiKdR8xFGR-202" target="SLbRJCfgujYiKdR8xFGR-213">
          <mxGeometry width="50" height="50" relative="1" as="geometry">
            <mxPoint x="617.2151898734178" y="500" as="sourcePoint" />
            <mxPoint x="419.240506329114" y="500" as="targetPoint" />
          </mxGeometry>
        </mxCell>
        <mxCell id="SLbRJCfgujYiKdR8xFGR-213" value="" style="html=1;points=[];perimeter=orthogonalPerimeter;fillColor=strokeColor;direction=south;fontSize=14;fontStyle=1" vertex="1" parent="SLbRJCfgujYiKdR8xFGR-88">
          <mxGeometry x="29.11392405063291" y="520" width="419.240506329114" height="5" as="geometry" />
        </mxCell>
        <mxCell id="SLbRJCfgujYiKdR8xFGR-214" value="[valid]" style="text;html=1;align=center;verticalAlign=middle;whiteSpace=wrap;rounded=0;fontStyle=1;fontSize=14;" vertex="1" parent="SLbRJCfgujYiKdR8xFGR-88">
          <mxGeometry x="506.5822784810127" y="460" width="69.87341772151899" height="30" as="geometry" />
        </mxCell>
        <mxCell id="SLbRJCfgujYiKdR8xFGR-215" value="" style="endArrow=classic;html=1;rounded=0;exitX=0.5;exitY=1;exitDx=0;exitDy=0;entryX=0.52;entryY=0.875;entryDx=0;entryDy=0;entryPerimeter=0;fontSize=14;" edge="1" parent="SLbRJCfgujYiKdR8xFGR-88" source="SLbRJCfgujYiKdR8xFGR-198" target="SLbRJCfgujYiKdR8xFGR-213">
          <mxGeometry width="50" height="50" relative="1" as="geometry">
            <mxPoint x="104.8101265822785" y="430" as="sourcePoint" />
            <mxPoint x="163.03797468354432" y="380" as="targetPoint" />
          </mxGeometry>
        </mxCell>
        <mxCell id="SLbRJCfgujYiKdR8xFGR-216" value="" style="endArrow=classic;html=1;rounded=0;exitX=0.5;exitY=1;exitDx=0;exitDy=0;fontSize=14;" edge="1" parent="SLbRJCfgujYiKdR8xFGR-88">
          <mxGeometry width="50" height="50" relative="1" as="geometry">
            <mxPoint x="221.26582278481013" y="525" as="sourcePoint" />
            <mxPoint x="221.26582278481013" y="610" as="targetPoint" />
          </mxGeometry>
        </mxCell>
        <mxCell id="SLbRJCfgujYiKdR8xFGR-217" value="Enter password with security requirment" style="rounded=1;whiteSpace=wrap;html=1;fontStyle=1;fontSize=14;" vertex="1" parent="SLbRJCfgujYiKdR8xFGR-88">
          <mxGeometry x="139.74683544303798" y="610" width="163.03797468354432" height="60" as="geometry" />
        </mxCell>
        <mxCell id="SLbRJCfgujYiKdR8xFGR-218" value="" style="shape=rhombus;html=1;verticalLabelPosition=bottom;verticalAlignment=top;fontSize=14;" vertex="1" parent="SLbRJCfgujYiKdR8xFGR-88">
          <mxGeometry x="617.2151898734178" y="670" width="93.16455696202533" height="80" as="geometry" />
        </mxCell>
        <mxCell id="SLbRJCfgujYiKdR8xFGR-219" value="" style="endArrow=classic;html=1;rounded=0;fontSize=14;edgeStyle=elbowEdgeStyle;fontStyle=1;entryX=0.5;entryY=0;entryDx=0;entryDy=0;exitX=0.5;exitY=1;exitDx=0;exitDy=0;" edge="1" parent="SLbRJCfgujYiKdR8xFGR-88" target="SLbRJCfgujYiKdR8xFGR-218">
          <mxGeometry width="50" height="50" relative="1" as="geometry">
            <mxPoint x="302.7848101265823" y="640" as="sourcePoint" />
            <mxPoint x="547.3417721518988" y="720" as="targetPoint" />
            <Array as="points">
              <mxPoint x="663.7974683544304" y="650" />
            </Array>
          </mxGeometry>
        </mxCell>
        <mxCell id="SLbRJCfgujYiKdR8xFGR-220" value="" style="endArrow=classic;html=1;rounded=0;exitX=0;exitY=0.5;exitDx=0;exitDy=0;entryX=0.5;entryY=1;entryDx=0;entryDy=0;edgeStyle=orthogonalEdgeStyle;fontSize=14;" edge="1" parent="SLbRJCfgujYiKdR8xFGR-88" target="SLbRJCfgujYiKdR8xFGR-217">
          <mxGeometry width="50" height="50" relative="1" as="geometry">
            <mxPoint x="617.2151898734178" y="709.5" as="sourcePoint" />
            <mxPoint x="419.240506329114" y="709.5" as="targetPoint" />
          </mxGeometry>
        </mxCell>
        <mxCell id="SLbRJCfgujYiKdR8xFGR-221" value="[Not meeting the minimum requirment]" style="text;html=1;align=center;verticalAlign=middle;whiteSpace=wrap;rounded=0;fontStyle=1;fontSize=14;" vertex="1" parent="SLbRJCfgujYiKdR8xFGR-88">
          <mxGeometry x="267.84810126582283" y="680" width="209.620253164557" height="30" as="geometry" />
        </mxCell>
        <mxCell id="SLbRJCfgujYiKdR8xFGR-222" value="" style="endArrow=classic;html=1;rounded=0;exitX=0.5;exitY=1;exitDx=0;exitDy=0;entryX=0.5;entryY=0;entryDx=0;entryDy=0;edgeStyle=orthogonalEdgeStyle;fontSize=14;" edge="1" parent="SLbRJCfgujYiKdR8xFGR-88" source="SLbRJCfgujYiKdR8xFGR-218" target="SLbRJCfgujYiKdR8xFGR-223">
          <mxGeometry width="50" height="50" relative="1" as="geometry">
            <mxPoint x="663.7974683544304" y="779.5" as="sourcePoint" />
            <mxPoint x="267.84810126582283" y="740" as="targetPoint" />
            <Array as="points">
              <mxPoint x="663.7974683544304" y="760" />
              <mxPoint x="221.26582278481013" y="760" />
            </Array>
          </mxGeometry>
        </mxCell>
        <mxCell id="SLbRJCfgujYiKdR8xFGR-225" value="" style="edgeStyle=orthogonalEdgeStyle;rounded=0;orthogonalLoop=1;jettySize=auto;html=1;fontSize=14;" edge="1" parent="SLbRJCfgujYiKdR8xFGR-88" source="SLbRJCfgujYiKdR8xFGR-223" target="SLbRJCfgujYiKdR8xFGR-138">
          <mxGeometry relative="1" as="geometry" />
        </mxCell>
        <mxCell id="SLbRJCfgujYiKdR8xFGR-223" value="Submit the form" style="rounded=1;whiteSpace=wrap;html=1;fontStyle=1;fontSize=14;" vertex="1" parent="SLbRJCfgujYiKdR8xFGR-88">
          <mxGeometry x="139.74683544303798" y="790" width="163.03797468354432" height="60" as="geometry" />
        </mxCell>
        <mxCell id="SLbRJCfgujYiKdR8xFGR-224" value="[meet the minimum requirment]" style="text;html=1;align=center;verticalAlign=middle;whiteSpace=wrap;rounded=0;fontStyle=1;fontSize=14;" vertex="1" parent="SLbRJCfgujYiKdR8xFGR-88">
          <mxGeometry x="267.84810126582283" y="730" width="209.620253164557" height="30" as="geometry" />
        </mxCell>
        <mxCell id="SLbRJCfgujYiKdR8xFGR-142" value="Swim lane for sub activity" style="text;strokeColor=none;fillColor=none;html=1;fontSize=14;fontStyle=1;verticalAlign=middle;align=center;" vertex="1" parent="1">
          <mxGeometry x="120" y="1560" width="100" height="40" as="geometry" />
        </mxCell>
      </root>
    </mxGraphModel>
  </diagram>
</mxfile>
